HIERARCHY
ROOT Hips
{
	OFFSET 0.00000 0.00000 0.00000
	CHANNELS 6 Xposition Yposition Zposition Zrotation Yrotation Xrotation 
	JOINT LHipJoint
	{
		OFFSET 0 0 0
		CHANNELS 3 Zrotation Yrotation Xrotation
		JOINT LeftHip
		{
			OFFSET 1.61024 -1.73873 0.75100
			CHANNELS 3 Zrotation Yrotation Xrotation
			JOINT LeftKnee
			{
				OFFSET 2.29819 -6.31424 0.00000
				CHANNELS 3 Zrotation Yrotation Xrotation
				JOINT LeftAnkle
				{
					OFFSET 2.76618 -7.60002 0.00000
					CHANNELS 3 Zrotation Yrotation Xrotation
					JOINT LeftToe
					{
						OFFSET 0.16838 -0.46263 2.02361
						CHANNELS 3 Zrotation Yrotation Xrotation
						End Site
						{
							OFFSET 0.00000 -0.00000 1.04662
						}
					}
				}
			}
		}
	}
	JOINT RHipJoint
	{
		OFFSET 0 0 0
		CHANNELS 3 Zrotation Yrotation Xrotation
		JOINT RightHip
		{
			OFFSET -1.46153 -1.73873 0.75100
			CHANNELS 3 Zrotation Yrotation Xrotation
			JOINT RightKnee
			{
				OFFSET -2.38373 -6.54924 0.00000
				CHANNELS 3 Zrotation Yrotation Xrotation
				JOINT RightAnkle
				{
					OFFSET -2.80314 -7.70157 0.00000
					CHANNELS 3 Zrotation Yrotation Xrotation
					JOINT RightToe
					{
						OFFSET -0.16142 -0.44349 2.02101
						CHANNELS 3 Zrotation Yrotation Xrotation
						End Site
						{
							OFFSET -0.00000 -0.00000 1.04381
						}
					}
				}
			}
		}
	}
	JOINT lowerback
	{
		OFFSET 0 0 0
		CHANNELS 3 Zrotation Yrotation Xrotation
		JOINT Chest
		{
			OFFSET -0.01629 1.66985 0.14750
			CHANNELS 3 Zrotation Yrotation Xrotation
			JOINT Chest2
			{
				OFFSET 0.02086 1.62378 0.20980
				CHANNELS 3 Zrotation Yrotation Xrotation
				JOINT lowerneck
				{
					OFFSET 0 0 0
					CHANNELS 3 Zrotation Yrotation Xrotation
					JOINT Neck
					{
						OFFSET -0.05690 1.78719 0.08702
						CHANNELS 3 Zrotation Yrotation Xrotation
						JOINT Head
						{
							OFFSET 0.16035 1.73871 -0.38470
							CHANNELS 3 Zrotation Yrotation Xrotation
							End Site
							{
								OFFSET 0.05645 1.80914 -0.14081
							}
						}
					}
				}
				JOINT LeftCollar
				{
					OFFSET 0 0 0
					CHANNELS 3 Zrotation Yrotation Xrotation
					JOINT LeftShoulder
					{
						OFFSET 2.83089 1.66494 -0.46008
CHANNELS 3 Zrotation Xrotation Yrotation
						JOINT LeftElbow
						{
OFFSET 0 -5.548930 -0.000000
CHANNELS 3 Zrotation Xrotation Yrotation
							JOINT LeftWrist
							{
OFFSET 0 -3.028980 -0.000000
CHANNELS 3 Zrotation Xrotation Yrotation
								JOINT lhand
								{
									OFFSET 0 0 0
CHANNELS 3 Zrotation Xrotation Yrotation
									JOINT LFingers
									{
OFFSET 0 -0.640950 -0.000000
CHANNELS 3 Zrotation Xrotation Yrotation
										End Site
										{
OFFSET 0 -0.516750 -0.000000
										}
									}
								}
								JOINT LThumb
								{
OFFSET 0 0.000000 0.000000
CHANNELS 3 Zrotation Xrotation Yrotation
									End Site
									{
OFFSET 0 -0.524640 0.524640
									}
								}
							}
						}
					}
				}
				JOINT RightCollar
				{
					OFFSET 0 0 0
					CHANNELS 3 Zrotation Yrotation Xrotation
					JOINT RightShoulder
					{
						OFFSET -2.84442 1.45761 -0.18088
CHANNELS 3 Zrotation Xrotation Yrotation
						JOINT RightElbow
						{
OFFSET 0 -5.351900 -0.000000
CHANNELS 3 Zrotation Xrotation Yrotation
							JOINT RightWrist
							{
OFFSET 0 -3.025310 -0.000000
CHANNELS 3 Zrotation Xrotation Yrotation
								JOINT rhand
								{
									OFFSET 0 0 0
CHANNELS 3 Zrotation Xrotation Yrotation
									JOINT RFingers
									{
OFFSET 0 -0.783890 -0.000000
CHANNELS 3 Zrotation Xrotation Yrotation
										End Site
										{
OFFSET 0 -0.631990 -0.000000
										}
									}
								}
								JOINT RThumb
								{
OFFSET 0 0.000000 0.000000
CHANNELS 3 Zrotation Xrotation Yrotation
									End Site
									{
OFFSET 0 -0.641640 0.641640
									}
								}
							}
						}
					}
				}
			}
		}
	}
}
MOTION
Frames: 9
Frame Time: .0083333
-0.6971 17.9075 0.6052 -69.1156 87.8963 -53.5574 0.0000 0.0000 0.0000 0.0000 0.0000 0.0000 0.0000 0.0000 0.0000 0.0000 0.0000 0.0000 0.0000 0.0000 0.0000 0.0000 0.0000 0.0000 17.7172 16.8917 -11.6740 -0.4056 -4.0885 11.3259 0.2297 -13.2462 -15.6961 -0.7497 5.5303 -15.4276 -0.6385 -0.7793 -7.4577 0.5014 -0.4460 -10.9161 0.8483 0.0874 -7.2681 -5.9026 -3.9979 -17.1624 10.2142 -6.6183 28.6317 3.9629 -1.9989 13.0000 0.0000 -0.0000 0.0000 6.5438 -28.6658 -74.5213 114.9926 -57.503 81.4628 30.0929 -15.5099 -5.3303 0.0 0.0 0.0 -7.1250 0.0 0.0 2.8610 36.122 0.6251 0.0000 -0.0000 0.0000 -105.2924 -59.2921 19.7579 -117.7643 -56.8768 -83.7925 -7.0048 -42.8106 -21.829 0.0 0.0 0.0 7.1250 0.0 -0.0 13.7042 8.4994 11.8825
-0.6983 17.9039 0.6049 -69.1825 87.8959 -53.6272 0.0000 0.0000 0.0000 0.0000 0.0000 0.0000 0.0000 0.0000 0.0000 0.0000 0.0000 0.0000 0.0000 0.0000 0.0000 0.0000 0.0000 0.0000 17.7061 16.9463 -11.7923 -0.4209 -4.1638 11.5381 0.2224 -13.2401 -15.7988 -0.7676 5.5945 -15.6123 -0.6605 -0.7886 -7.4887 0.5193 -0.4576 -10.9011 0.8791 0.0835 -7.2334 -5.8642 -3.9837 -17.2046 10.1445 -6.5901 28.6785 3.9348 -1.9893 13.0207 0.0000 0.0000 0.0000 6.5607 -28.6667 -74.4888 115.0498 -57.4909 81.511 30.0844 -15.4281 -5.4789 0.0 0.0 0.0 -7.1250 0.0 0.0 2.8532 36.2926 0.6115 0.0000 0.0000 0.0000 -105.3343 -59.291 19.7107 -117.8413 -56.8583 -83.857 -7.0435 -42.9023 -21.8558 0.0 0.0 0.0 7.1250 0.0 -0.0 13.6800 8.4699 11.8684
-0.7005 17.9013 0.6037 -70.1132 87.8834 -54.5584 0.0000 0.0000 0.0000 0.0000 0.0000 0.0000 0.0000 0.0000 0.0000 0.0000 0.0000 0.0000 0.0000 0.0000 0.0000 0.0000 0.0000 0.0000 17.7344 16.9065 -11.7311 -0.4113 -4.1170 11.4061 0.2318 -13.2840 -15.7282 -0.7869 5.6630 -15.8097 -0.6246 -0.8095 -7.4951 0.5408 -0.4861 -10.8924 0.8814 0.0672 -7.2197 -5.8226 -3.9547 -17.2458 10.0996 -6.5486 28.7311 3.9186 -1.9698 13.0432 -0.0000 -0.0000 0.0000 6.5882 -28.6864 -74.448 115.1034 -57.4795 81.5562 30.1561 -15.2937 -5.5859 0.0 0.0 0.0 -7.1250 0.0 0.0 2.9133 36.4199 0.6153 -0.0000 -0.0000 0.0000 -105.3844 -59.3506 19.6733 -117.8530 -56.8554 -83.8668 -7.1186 -42.9428 -21.878 0.0 0.0 0.0 7.1250 0.0 -0.0 13.6331 8.442 11.833
-0.7023 17.9045 0.6026 -71.6602 87.8150 -56.1137 0.0000 0.0000 0.0000 0.0000 0.0000 0.0000 0.0000 0.0000 0.0000 0.0000 0.0000 0.0000 0.0000 0.0000 0.0000 0.0000 0.0000 0.0000 17.8256 16.9030 -11.6953 -0.4084 -4.1025 11.3651 0.2261 -13.2529 -15.7640 -0.7538 5.5452 -15.4704 -0.5050 -0.7884 -7.4715 0.5436 -0.4603 -10.8981 0.8180 0.0714 -7.2409 -5.8036 -3.9732 -17.2308 10.0898 -6.5788 28.7357 3.9066 -1.9821 13.0440 -0.0000 0.0000 0.0000 6.5811 -28.7921 -74.5527 115.1950 -57.46 81.6335 30.3263 -15.1085 -5.7584 0.0 0.0 0.0 -7.1250 0.0 0.0 3.0564 36.6286 0.63 -0.0000 0.0000 0.0000 -105.3335 -59.3183 19.7403 -117.8547 -56.855 -83.8682 -7.222 -42.9455 -21.8637 0.0 0.0 0.0 7.1250 0.0 -0.0 13.5688 8.4471 11.7724
-0.7052 17.9079 0.6024 -72.5623 87.8116 -57.0214 0.0000 0.0000 0.0000 0.0000 0.0000 0.0000 0.0000 0.0000 0.0000 0.0000 0.0000 0.0000 0.0000 0.0000 0.0000 0.0000 0.0000 0.0000 17.8461 16.8820 -11.6541 -0.4026 -4.0734 11.2833 0.2285 -13.2615 -15.7415 -0.7484 5.5259 -15.4149 -0.4846 -0.7920 -7.4664 0.5506 -0.4664 -10.8860 0.8140 0.0666 -7.2305 -5.8183 -3.9818 -17.2439 10.0710 -6.5814 28.7385 3.9012 -1.9874 13.0479 0.0000 -0.0000 0.0000 6.5137 -28.9665 -74.6413 115.5021 -57.394 81.8922 30.3637 -15.074 -5.9272 0.0 0.0 0.0 -7.1250 0.0 0.0 3.0874 36.8256 0.6215 0.0000 -0.0000 0.0000 -105.3783 -59.321 19.6906 -117.8329 -56.8603 -83.8499 -7.2838 -43.0078 -21.9376 0.0 0.0 0.0 7.1250 0.0 -0.0 13.5302 8.3697 11.7582
-0.7078 17.9074 0.6028 -72.6289 87.8319 -57.0926 0.0000 0.0000 0.0000 0.0000 0.0000 0.0000 0.0000 0.0000 0.0000 0.0000 0.0000 0.0000 0.0000 0.0000 0.0000 0.0000 0.0000 0.0000 17.8279 16.8943 -11.6070 -0.3971 -4.0461 11.2065 0.2374 -13.3158 -15.6971 -0.7404 5.4967 -15.3310 -0.5345 -0.8073 -7.4625 0.5544 -0.4869 -10.8713 0.8457 0.0595 -7.2155 -5.7997 -3.9805 -17.2703 10.0669 -6.5837 28.7326 3.8955 -1.9866 13.0505 0.0000 0.0000 0.0000 6.5016 -29.0567 -74.6402 115.6690 -57.3577 82.0328 30.468 -15.0291 -5.9821 0.0 0.0 0.0 -7.1250 0.0 0.0 3.1758 36.8954 0.634 0.0000 0.0000 0.0000 -105.425 -59.3447 19.6175 -117.8898 -56.8465 -83.8976 -7.3739 -43.0968 -22.0332 0.0 0.0 0.0 7.1250 0.0 -0.0 13.4740 8.2685 11.7341
-0.7093 17.9073 0.6025 -72.2499 87.8520 -56.7249 0.0000 0.0000 0.0000 0.0000 0.0000 0.0000 0.0000 0.0000 0.0000 0.0000 0.0000 0.0000 0.0000 0.0000 0.0000 0.0000 0.0000 0.0000 17.7967 16.8917 -11.6268 -0.3996 -4.0584 11.2411 0.2397 -13.3172 -15.6627 -0.7401 5.4958 -15.3283 -0.5554 -0.8114 -7.4611 0.5451 -0.4941 -10.8542 0.8474 0.0563 -7.1971 -5.7750 -3.9773 -17.3122 10.0667 -6.5865 28.7368 3.8905 -1.9841 13.0607 0.0000 0.0000 0.0000 6.5501 -29.0575 -74.5909 115.5537 -57.3828 81.9357 30.6426 -14.9267 -5.9668 0.0 0.0 0.0 -7.1250 0.0 0.0 3.3242 36.8884 0.6642 0.0000 0.0000 0.0000 -105.4577 -59.3575 19.5399 -117.9499 -56.8319 -83.9479 -7.3418 -43.1377 -22.0536 0.0 0.0 0.0 7.1250 0.0 -0.0 13.4939 8.2515 11.7572
-0.7113 17.9035 0.6025 -73.1716 87.8368 -57.6497 0.0000 0.0000 0.0000 0.0000 0.0000 0.0000 0.0000 0.0000 0.0000 0.0000 0.0000 0.0000 0.0000 0.0000 0.0000 0.0000 0.0000 0.0000 17.8291 16.9210 -11.6693 -0.4065 -4.0928 11.3380 0.2423 -13.3648 -15.7055 -0.7632 5.5791 -15.5678 -0.5103 -0.7950 -7.4480 0.5434 -0.4734 -10.8532 0.8208 0.0632 -7.2042 -5.8210 -3.9976 -17.2892 10.0948 -6.6094 28.7111 3.9050 -1.9969 13.0505 0.0000 0.0000 0.0000 6.5201 -28.9664 -74.5737 115.2141 -57.4559 81.6495 30.5963 -15.0806 -5.5915 0.0 0.0 0.0 -7.1250 0.0 0.0 3.2853 36.4517 0.6915 0.0000 0.0000 0.0000 -105.4483 -59.3005 19.545 -118.0234 -56.814 -84.0094 -7.3838 -43.1535 -22.0244 0.0 0.0 0.0 7.1250 0.0 -0.0 13.4678 8.2763 11.7263
-0.7123 17.9015 0.6011 -73.0306 87.8066 -57.5155 0.0000 0.0000 0.0000 0.0000 0.0000 0.0000 0.0000 0.0000 0.0000 0.0000 0.0000 0.0000 0.0000 0.0000 0.0000 0.0000 0.0000 0.0000 17.8509 16.9314 -11.6953 -0.4104 -4.1125 11.3933 0.2388 -13.3412 -15.7195 -0.7780 5.6317 -15.7194 -0.4453 -0.7635 -7.4727 0.5240 -0.4344 -10.8390 0.7644 0.0764 -7.1759 -5.8180 -4.0203 -17.2767 10.1079 -6.6463 28.6836 3.9024 -2.0121 13.0409 -0.0000 0.0000 0.0000 6.497 -28.9113 -74.5446 115.1328 -57.4733 81.581 30.4227 -15.2385 -5.4031 0.0 0.0 0.0 -7.1250 0.0 0.0 3.1387 36.2241 0.6781 -0.0000 0.0000 0.0000 -105.4567 -59.2345 19.4933 -118.0901 -56.7977 -84.0652 -7.3107 -43.1331 -21.944 0.0 0.0 0.0 7.1250 0.0 -0.0 13.5135 8.3611 11.7451
